<mxfile host="app.diagrams.net" agent="Mozilla/5.0 (Windows NT 10.0; Win64; x64; rv:134.0) Gecko/20100101 Firefox/134.0" version="26.0.4">
  <diagram name="Page-1" id="yE_Jrv5j-9r4oepEpBrQ">
    <mxGraphModel dx="1687" dy="896" grid="0" gridSize="10" guides="1" tooltips="1" connect="1" arrows="1" fold="1" page="1" pageScale="1" pageWidth="850" pageHeight="1100" math="0" shadow="0">
      <root>
        <mxCell id="0" />
        <mxCell id="1" parent="0" />
        <mxCell id="cj-FOoZoDdZp8addEG-c-2" value="&lt;div&gt;&lt;br&gt;&lt;/div&gt;&lt;div&gt;&lt;br&gt;&lt;/div&gt;" style="rounded=1;whiteSpace=wrap;html=1;" vertex="1" parent="1">
          <mxGeometry x="213" y="61" width="421" height="299" as="geometry" />
        </mxCell>
        <mxCell id="cj-FOoZoDdZp8addEG-c-7" value="" style="shape=actor;whiteSpace=wrap;html=1;" vertex="1" parent="1">
          <mxGeometry x="87" y="115" width="40" height="60" as="geometry" />
        </mxCell>
        <mxCell id="cj-FOoZoDdZp8addEG-c-8" value="&lt;div&gt;&lt;br&gt;&lt;/div&gt;&lt;div&gt;&lt;br&gt;&lt;/div&gt;" style="rounded=1;whiteSpace=wrap;html=1;" vertex="1" parent="1">
          <mxGeometry x="193" y="436" width="465" height="149" as="geometry" />
        </mxCell>
        <mxCell id="cj-FOoZoDdZp8addEG-c-10" value="&lt;font face=&quot;Times New Roman&quot;&gt;Student Resource&lt;/font&gt;" style="shape=cube;whiteSpace=wrap;html=1;boundedLbl=1;backgroundOutline=1;darkOpacity=0.05;darkOpacity2=0.1;" vertex="1" parent="1">
          <mxGeometry x="205" y="470" width="101" height="50" as="geometry" />
        </mxCell>
        <mxCell id="cj-FOoZoDdZp8addEG-c-11" value="&lt;div&gt;&lt;font face=&quot;Times New Roman&quot;&gt;Enrollment&lt;br&gt;&lt;/font&gt;&lt;/div&gt;&lt;div&gt;&lt;font face=&quot;Times New Roman&quot;&gt;&amp;nbsp;Resource&lt;/font&gt;&lt;/div&gt;" style="shape=cube;whiteSpace=wrap;html=1;boundedLbl=1;backgroundOutline=1;darkOpacity=0.05;darkOpacity2=0.1;" vertex="1" parent="1">
          <mxGeometry x="317" y="470" width="101" height="50" as="geometry" />
        </mxCell>
        <mxCell id="cj-FOoZoDdZp8addEG-c-13" value="&lt;div&gt;&lt;font face=&quot;Times New Roman&quot;&gt;Instructor&lt;br&gt;&lt;/font&gt;&lt;/div&gt;&lt;div&gt;&lt;font face=&quot;Times New Roman&quot;&gt;&amp;nbsp;Resource&lt;/font&gt;&lt;/div&gt;" style="shape=cube;whiteSpace=wrap;html=1;boundedLbl=1;backgroundOutline=1;darkOpacity=0.05;darkOpacity2=0.1;" vertex="1" parent="1">
          <mxGeometry x="425" y="470" width="101" height="50" as="geometry" />
        </mxCell>
        <mxCell id="cj-FOoZoDdZp8addEG-c-14" value="&lt;div&gt;&lt;font face=&quot;Times New Roman&quot;&gt;Payment&lt;br&gt;&lt;/font&gt;&lt;/div&gt;&lt;div&gt;&lt;font face=&quot;Times New Roman&quot;&gt;&amp;nbsp;Resource&lt;/font&gt;&lt;/div&gt;" style="shape=cube;whiteSpace=wrap;html=1;boundedLbl=1;backgroundOutline=1;darkOpacity=0.05;darkOpacity2=0.1;" vertex="1" parent="1">
          <mxGeometry x="533" y="470" width="101" height="50" as="geometry" />
        </mxCell>
        <mxCell id="cj-FOoZoDdZp8addEG-c-18" value="&lt;font style=&quot;font-size: 16px;&quot; face=&quot;Times New Roman&quot;&gt;View&lt;/font&gt;" style="text;html=1;align=center;verticalAlign=middle;whiteSpace=wrap;rounded=0;" vertex="1" parent="1">
          <mxGeometry x="389" y="58" width="60" height="30" as="geometry" />
        </mxCell>
        <mxCell id="cj-FOoZoDdZp8addEG-c-20" value="" style="rounded=1;whiteSpace=wrap;html=1;" vertex="1" parent="1">
          <mxGeometry x="182" y="649" width="468" height="227" as="geometry" />
        </mxCell>
        <mxCell id="cj-FOoZoDdZp8addEG-c-22" value="&lt;font face=&quot;Times New Roman&quot; style=&quot;font-size: 18px;&quot;&gt;SQLite&lt;/font&gt;" style="shape=cylinder3;whiteSpace=wrap;html=1;boundedLbl=1;backgroundOutline=1;size=15;" vertex="1" parent="1">
          <mxGeometry x="717" y="728" width="115" height="146" as="geometry" />
        </mxCell>
        <mxCell id="cj-FOoZoDdZp8addEG-c-24" value="&lt;div&gt;Payment &lt;br&gt;&lt;/div&gt;&lt;div&gt;Model&lt;br&gt;&lt;/div&gt;" style="rounded=0;whiteSpace=wrap;html=1;fontFamily=Times New Roman;" vertex="1" parent="1">
          <mxGeometry x="196" y="683" width="81" height="60" as="geometry" />
        </mxCell>
        <mxCell id="cj-FOoZoDdZp8addEG-c-25" value="&lt;div&gt;Enrollment&lt;br&gt;&lt;/div&gt;&lt;div&gt;Model&lt;br&gt;&lt;/div&gt;" style="rounded=0;whiteSpace=wrap;html=1;fontFamily=Times New Roman;" vertex="1" parent="1">
          <mxGeometry x="283" y="683" width="81" height="60" as="geometry" />
        </mxCell>
        <mxCell id="cj-FOoZoDdZp8addEG-c-26" value="&lt;div&gt;Student&lt;br&gt;&lt;/div&gt;&lt;div&gt;Model&lt;br&gt;&lt;/div&gt;" style="rounded=0;whiteSpace=wrap;html=1;fontFamily=Times New Roman;" vertex="1" parent="1">
          <mxGeometry x="370" y="683" width="81" height="60" as="geometry" />
        </mxCell>
        <mxCell id="cj-FOoZoDdZp8addEG-c-27" value="&lt;div&gt;Course&lt;/div&gt;&lt;div&gt;Enrollment&lt;br&gt;&lt;/div&gt;&lt;div&gt;Model&lt;br&gt;&lt;/div&gt;" style="rounded=0;whiteSpace=wrap;html=1;fontFamily=Times New Roman;" vertex="1" parent="1">
          <mxGeometry x="457" y="683" width="81" height="60" as="geometry" />
        </mxCell>
        <mxCell id="cj-FOoZoDdZp8addEG-c-28" value="&lt;div&gt;Department&lt;br&gt;&lt;/div&gt;&lt;div&gt;Model&lt;br&gt;&lt;/div&gt;" style="rounded=0;whiteSpace=wrap;html=1;fontFamily=Times New Roman;" vertex="1" parent="1">
          <mxGeometry x="544" y="683" width="81" height="60" as="geometry" />
        </mxCell>
        <mxCell id="cj-FOoZoDdZp8addEG-c-29" value="&lt;div&gt;Enrollment Fee&lt;/div&gt;&lt;div&gt;Model&lt;br&gt;&lt;/div&gt;" style="rounded=0;whiteSpace=wrap;html=1;fontFamily=Times New Roman;" vertex="1" parent="1">
          <mxGeometry x="196" y="748" width="81" height="60" as="geometry" />
        </mxCell>
        <mxCell id="cj-FOoZoDdZp8addEG-c-30" value="&lt;div&gt;Fee &lt;br&gt;&lt;/div&gt;&lt;div&gt;Model&lt;br&gt;&lt;/div&gt;" style="rounded=0;whiteSpace=wrap;html=1;fontFamily=Times New Roman;" vertex="1" parent="1">
          <mxGeometry x="283" y="748" width="81" height="60" as="geometry" />
        </mxCell>
        <mxCell id="cj-FOoZoDdZp8addEG-c-31" value="&lt;div&gt;Instructor&lt;br&gt;&lt;/div&gt;&lt;div&gt;Model&lt;br&gt;&lt;/div&gt;" style="rounded=0;whiteSpace=wrap;html=1;fontFamily=Times New Roman;" vertex="1" parent="1">
          <mxGeometry x="370" y="748" width="81" height="60" as="geometry" />
        </mxCell>
        <mxCell id="cj-FOoZoDdZp8addEG-c-32" value="&lt;div&gt;Populator&lt;br&gt;&lt;/div&gt;&lt;div&gt;Model&lt;br&gt;&lt;/div&gt;" style="rounded=0;whiteSpace=wrap;html=1;fontFamily=Times New Roman;" vertex="1" parent="1">
          <mxGeometry x="457" y="748" width="81" height="60" as="geometry" />
        </mxCell>
        <mxCell id="cj-FOoZoDdZp8addEG-c-42" value="" style="rounded=1;whiteSpace=wrap;html=1;" vertex="1" parent="1">
          <mxGeometry x="241" y="85" width="363" height="98" as="geometry" />
        </mxCell>
        <mxCell id="cj-FOoZoDdZp8addEG-c-33" value="&lt;div&gt;Section&lt;br&gt;&lt;/div&gt;&lt;div&gt;Model&lt;br&gt;&lt;/div&gt;" style="rounded=0;whiteSpace=wrap;html=1;fontFamily=Times New Roman;" vertex="1" parent="1">
          <mxGeometry x="544" y="748" width="81" height="60" as="geometry" />
        </mxCell>
        <mxCell id="cj-FOoZoDdZp8addEG-c-34" value="&lt;div&gt;User&lt;br&gt;&lt;/div&gt;&lt;div&gt;Model&lt;br&gt;&lt;/div&gt;" style="rounded=0;whiteSpace=wrap;html=1;fontFamily=Times New Roman;" vertex="1" parent="1">
          <mxGeometry x="196" y="816" width="430" height="40" as="geometry" />
        </mxCell>
        <mxCell id="cj-FOoZoDdZp8addEG-c-35" value="&lt;font style=&quot;font-size: 19px;&quot; face=&quot;Times New Roman&quot;&gt;Model&lt;/font&gt;" style="text;html=1;align=center;verticalAlign=middle;whiteSpace=wrap;rounded=0;" vertex="1" parent="1">
          <mxGeometry x="389" y="653" width="60" height="30" as="geometry" />
        </mxCell>
        <mxCell id="cj-FOoZoDdZp8addEG-c-37" value="Create Page" style="shape=mxgraph.bpmn.data;labelPosition=center;verticalLabelPosition=bottom;align=center;verticalAlign=top;size=15;html=1;" vertex="1" parent="1">
          <mxGeometry x="356" y="115.5" width="29" height="38.5" as="geometry" />
        </mxCell>
        <mxCell id="cj-FOoZoDdZp8addEG-c-38" value="Edit Page" style="shape=mxgraph.bpmn.data;labelPosition=center;verticalLabelPosition=bottom;align=center;verticalAlign=top;size=15;html=1;" vertex="1" parent="1">
          <mxGeometry x="422" y="117" width="31" height="37" as="geometry" />
        </mxCell>
        <mxCell id="cj-FOoZoDdZp8addEG-c-40" value="View Page" style="shape=mxgraph.bpmn.data;labelPosition=center;verticalLabelPosition=bottom;align=center;verticalAlign=top;size=15;html=1;" vertex="1" parent="1">
          <mxGeometry x="489" y="115" width="30" height="39" as="geometry" />
        </mxCell>
        <mxCell id="cj-FOoZoDdZp8addEG-c-43" value="List Page" style="shape=mxgraph.bpmn.data;labelPosition=center;verticalLabelPosition=bottom;align=center;verticalAlign=top;size=15;html=1;" vertex="1" parent="1">
          <mxGeometry x="287" y="116.75" width="32" height="36" as="geometry" />
        </mxCell>
        <mxCell id="cj-FOoZoDdZp8addEG-c-44" value="" style="rounded=1;whiteSpace=wrap;html=1;" vertex="1" parent="1">
          <mxGeometry x="237.5" y="208" width="363" height="83" as="geometry" />
        </mxCell>
        <mxCell id="cj-FOoZoDdZp8addEG-c-45" value="&lt;div&gt;Filament&#39;s Admin Service Provider&lt;br&gt;&lt;/div&gt;" style="shape=cube;whiteSpace=wrap;html=1;boundedLbl=1;backgroundOutline=1;darkOpacity=0.05;darkOpacity2=0.1;" vertex="1" parent="1">
          <mxGeometry x="217.5" y="528" width="411" height="52" as="geometry" />
        </mxCell>
        <mxCell id="cj-FOoZoDdZp8addEG-c-46" value="&lt;font face=&quot;Times New Roman&quot;&gt;Provided by Filament Resources&lt;/font&gt;" style="text;html=1;align=center;verticalAlign=middle;whiteSpace=wrap;rounded=0;" vertex="1" parent="1">
          <mxGeometry x="205" y="83" width="251" height="30" as="geometry" />
        </mxCell>
        <mxCell id="cj-FOoZoDdZp8addEG-c-47" value="&lt;font face=&quot;Times New Roman&quot;&gt;Provided by Filament Admin Service Provider&lt;/font&gt;" style="text;html=1;align=center;verticalAlign=middle;whiteSpace=wrap;rounded=0;" vertex="1" parent="1">
          <mxGeometry x="244" y="205" width="251" height="30" as="geometry" />
        </mxCell>
        <mxCell id="cj-FOoZoDdZp8addEG-c-49" value="Login Page" style="shape=mxgraph.bpmn.data;labelPosition=center;verticalLabelPosition=bottom;align=center;verticalAlign=top;size=15;html=1;" vertex="1" parent="1">
          <mxGeometry x="292" y="233.13" width="29" height="32.75" as="geometry" />
        </mxCell>
        <mxCell id="cj-FOoZoDdZp8addEG-c-51" value="Dashboard" style="shape=mxgraph.bpmn.data;labelPosition=center;verticalLabelPosition=bottom;align=center;verticalAlign=top;size=15;html=1;" vertex="1" parent="1">
          <mxGeometry x="389" y="233.13" width="29" height="32.75" as="geometry" />
        </mxCell>
        <mxCell id="cj-FOoZoDdZp8addEG-c-54" value="Widgets" style="shape=mxgraph.bpmn.data;labelPosition=center;verticalLabelPosition=bottom;align=center;verticalAlign=top;size=15;html=1;" vertex="1" parent="1">
          <mxGeometry x="486" y="233.13" width="29" height="32.75" as="geometry" />
        </mxCell>
        <mxCell id="cj-FOoZoDdZp8addEG-c-56" value="&lt;font face=&quot;Times New Roman&quot;&gt;Custom Livewire pages&lt;/font&gt;" style="rounded=1;whiteSpace=wrap;html=1;" vertex="1" parent="1">
          <mxGeometry x="234.5" y="305" width="363" height="40" as="geometry" />
        </mxCell>
        <mxCell id="cj-FOoZoDdZp8addEG-c-57" value="&lt;font face=&quot;Times New Roman&quot;&gt;Controller&lt;/font&gt;" style="text;html=1;align=center;verticalAlign=middle;whiteSpace=wrap;rounded=0;fontSize=16;" vertex="1" parent="1">
          <mxGeometry x="401" y="436" width="60" height="30" as="geometry" />
        </mxCell>
        <mxCell id="cj-FOoZoDdZp8addEG-c-58" value="" style="endArrow=classic;html=1;rounded=0;exitX=0.143;exitY=1;exitDx=0;exitDy=0;exitPerimeter=0;entryX=0.173;entryY=-0.001;entryDx=0;entryDy=0;entryPerimeter=0;" edge="1" parent="1" source="cj-FOoZoDdZp8addEG-c-2" target="cj-FOoZoDdZp8addEG-c-8">
          <mxGeometry width="50" height="50" relative="1" as="geometry">
            <mxPoint x="391" y="426" as="sourcePoint" />
            <mxPoint x="441" y="376" as="targetPoint" />
          </mxGeometry>
        </mxCell>
        <mxCell id="cj-FOoZoDdZp8addEG-c-59" value="" style="endArrow=classic;html=1;rounded=0;exitX=0.75;exitY=0;exitDx=0;exitDy=0;entryX=0.778;entryY=1.002;entryDx=0;entryDy=0;entryPerimeter=0;" edge="1" parent="1" source="cj-FOoZoDdZp8addEG-c-8" target="cj-FOoZoDdZp8addEG-c-2">
          <mxGeometry width="50" height="50" relative="1" as="geometry">
            <mxPoint x="283" y="370" as="sourcePoint" />
            <mxPoint x="283" y="446" as="targetPoint" />
          </mxGeometry>
        </mxCell>
        <mxCell id="cj-FOoZoDdZp8addEG-c-60" value="&lt;font face=&quot;Times New Roman&quot;&gt;Requests Process&lt;/font&gt;" style="text;html=1;align=center;verticalAlign=middle;whiteSpace=wrap;rounded=0;" vertex="1" parent="1">
          <mxGeometry x="277" y="381" width="60" height="30" as="geometry" />
        </mxCell>
        <mxCell id="cj-FOoZoDdZp8addEG-c-61" value="&lt;div align=&quot;center&quot;&gt;&lt;font face=&quot;Times New Roman&quot;&gt;Rendering&lt;/font&gt;&lt;/div&gt;&lt;div align=&quot;center&quot;&gt;&lt;font face=&quot;Times New Roman&quot;&gt;Content&lt;/font&gt;&lt;br&gt;&lt;/div&gt;" style="text;whiteSpace=wrap;html=1;" vertex="1" parent="1">
          <mxGeometry x="547" y="378" width="59" height="36" as="geometry" />
        </mxCell>
        <mxCell id="cj-FOoZoDdZp8addEG-c-62" value="&lt;font face=&quot;Times New Roman&quot;&gt;User&lt;/font&gt;" style="text;html=1;align=center;verticalAlign=middle;whiteSpace=wrap;rounded=0;" vertex="1" parent="1">
          <mxGeometry x="77" y="175" width="60" height="30" as="geometry" />
        </mxCell>
        <mxCell id="cj-FOoZoDdZp8addEG-c-63" value="" style="endArrow=classic;html=1;rounded=0;exitX=0.131;exitY=1;exitDx=0;exitDy=0;exitPerimeter=0;entryX=0.15;entryY=0.009;entryDx=0;entryDy=0;entryPerimeter=0;" edge="1" parent="1" source="cj-FOoZoDdZp8addEG-c-8" target="cj-FOoZoDdZp8addEG-c-20">
          <mxGeometry width="50" height="50" relative="1" as="geometry">
            <mxPoint x="283" y="370" as="sourcePoint" />
            <mxPoint x="283" y="446" as="targetPoint" />
          </mxGeometry>
        </mxCell>
        <mxCell id="cj-FOoZoDdZp8addEG-c-64" value="Asks for data" style="text;html=1;align=center;verticalAlign=middle;whiteSpace=wrap;rounded=0;" vertex="1" parent="1">
          <mxGeometry x="251" y="600" width="60" height="30" as="geometry" />
        </mxCell>
        <mxCell id="cj-FOoZoDdZp8addEG-c-65" value="" style="endArrow=classic;html=1;rounded=0;exitX=0.794;exitY=0.003;exitDx=0;exitDy=0;exitPerimeter=0;entryX=0.775;entryY=1;entryDx=0;entryDy=0;entryPerimeter=0;" edge="1" parent="1" source="cj-FOoZoDdZp8addEG-c-20" target="cj-FOoZoDdZp8addEG-c-8">
          <mxGeometry width="50" height="50" relative="1" as="geometry">
            <mxPoint x="264" y="595" as="sourcePoint" />
            <mxPoint x="262" y="661" as="targetPoint" />
          </mxGeometry>
        </mxCell>
        <mxCell id="cj-FOoZoDdZp8addEG-c-66" value="&lt;div&gt;Returns &lt;br&gt;&lt;/div&gt;&lt;div&gt;Data&lt;br&gt;&lt;/div&gt;" style="text;html=1;align=center;verticalAlign=middle;whiteSpace=wrap;rounded=0;" vertex="1" parent="1">
          <mxGeometry x="486" y="600" width="60" height="30" as="geometry" />
        </mxCell>
        <mxCell id="cj-FOoZoDdZp8addEG-c-68" value="" style="endArrow=classic;html=1;rounded=0;entryX=0.002;entryY=0.386;entryDx=0;entryDy=0;entryPerimeter=0;exitX=0.998;exitY=0.593;exitDx=0;exitDy=0;exitPerimeter=0;" edge="1" parent="1" source="cj-FOoZoDdZp8addEG-c-20" target="cj-FOoZoDdZp8addEG-c-22">
          <mxGeometry width="50" height="50" relative="1" as="geometry">
            <mxPoint x="295" y="777" as="sourcePoint" />
            <mxPoint x="345" y="727" as="targetPoint" />
          </mxGeometry>
        </mxCell>
        <mxCell id="cj-FOoZoDdZp8addEG-c-69" value="&lt;font face=&quot;Times New Roman&quot;&gt;Request&lt;/font&gt;" style="text;html=1;align=center;verticalAlign=middle;whiteSpace=wrap;rounded=0;" vertex="1" parent="1">
          <mxGeometry x="653" y="754" width="60" height="25" as="geometry" />
        </mxCell>
        <mxCell id="cj-FOoZoDdZp8addEG-c-70" value="" style="endArrow=classic;html=1;rounded=0;entryX=1;entryY=0.761;entryDx=0;entryDy=0;entryPerimeter=0;exitX=0.009;exitY=0.639;exitDx=0;exitDy=0;exitPerimeter=0;" edge="1" parent="1" source="cj-FOoZoDdZp8addEG-c-22" target="cj-FOoZoDdZp8addEG-c-20">
          <mxGeometry width="50" height="50" relative="1" as="geometry">
            <mxPoint x="649" y="824" as="sourcePoint" />
            <mxPoint x="717" y="824" as="targetPoint" />
          </mxGeometry>
        </mxCell>
        <mxCell id="cj-FOoZoDdZp8addEG-c-71" value="&lt;font face=&quot;Times New Roman&quot;&gt;Response&lt;/font&gt;" style="text;html=1;align=center;verticalAlign=middle;whiteSpace=wrap;rounded=0;" vertex="1" parent="1">
          <mxGeometry x="653" y="794" width="60" height="25" as="geometry" />
        </mxCell>
        <mxCell id="cj-FOoZoDdZp8addEG-c-72" value="" style="endArrow=classic;html=1;rounded=0;entryX=0;entryY=0.334;entryDx=0;entryDy=0;entryPerimeter=0;exitX=1;exitY=0.75;exitDx=0;exitDy=0;" edge="1" parent="1" source="cj-FOoZoDdZp8addEG-c-7" target="cj-FOoZoDdZp8addEG-c-2">
          <mxGeometry width="50" height="50" relative="1" as="geometry">
            <mxPoint x="122" y="234" as="sourcePoint" />
            <mxPoint x="172" y="184" as="targetPoint" />
          </mxGeometry>
        </mxCell>
        <mxCell id="cj-FOoZoDdZp8addEG-c-73" value="&lt;font face=&quot;Times New Roman&quot;&gt;Enrollment System Architecture&lt;/font&gt;" style="text;html=1;align=center;verticalAlign=middle;whiteSpace=wrap;rounded=0;" vertex="1" parent="1">
          <mxGeometry x="323" y="5" width="221" height="30" as="geometry" />
        </mxCell>
      </root>
    </mxGraphModel>
  </diagram>
</mxfile>
